HIERARCHY
ROOT Hips
{
  OFFSET -93.6914 97.1326 109.304
  CHANNELS 6 Xposition Yposition Zposition Zrotation Xrotation Yrotation
  JOINT ToSpine
  {
    OFFSET -2.69724 7.43032 -0.144315
    CHANNELS 3 Zrotation Xrotation Yrotation
    JOINT Spine
    {
      OFFSET -0.0310711 10.7595 1.96963
      CHANNELS 3 Zrotation Xrotation Yrotation
      JOINT Spine1
      {
        OFFSET 19.9056 3.91189 0.764692
        CHANNELS 3 Zrotation Xrotation Yrotation
        JOINT Neck
        {
          OFFSET 25.9749 7.03908 -0.130764
          CHANNELS 3 Zrotation Xrotation Yrotation
          JOINT Head
          {
            OFFSET 9.52751 0.295786 -0.907742
            CHANNELS 3 Zrotation Xrotation Yrotation
            End Site
            {
              OFFSET 16.4037 0.713936 2.7358
            }
          }
        }
        JOINT LeftShoulder
        {
          OFFSET 17.7449 4.33886 11.7777
          CHANNELS 3 Zrotation Xrotation Yrotation
          JOINT LeftArm
          {
            OFFSET 0.911315 1.27913 9.80584
            CHANNELS 3 Zrotation Xrotation Yrotation
            JOINT LeftForeArm
            {
              OFFSET 28.6126 1.18197 -3.53199
              CHANNELS 3 Zrotation Xrotation Yrotation
              JOINT LeftHand
              {
                OFFSET 27.5088 0.0218783 0.327423
                CHANNELS 3 Zrotation Xrotation Yrotation
                End Site
                {
                  OFFSET 18.6038 -0.000155887 0.382096
                }
              }
            }
          }
        }
        JOINT RightShoulder
        {
          OFFSET 17.1009 2.89543 -12.2328
          CHANNELS 3 Zrotation Xrotation Yrotation
          JOINT RightArm
          {
            OFFSET 1.4228 0.178766 -10.211
            CHANNELS 3 Zrotation Xrotation Yrotation
            JOINT RightForeArm
            {
              OFFSET 28.733 1.87905 2.64907
              CHANNELS 3 Zrotation Xrotation Yrotation
              JOINT RightHand
              {
                OFFSET 27.4588 0.290562 -0.101845
                CHANNELS 3 Zrotation Xrotation Yrotation
                End Site
                {
                  OFFSET 17.8396 -0.255518 -0.000602873
                }
              }
            }
          }
        }
      }
    }
  }
  JOINT LeftUpLeg
  {
    OFFSET -5.61296 -2.22332 -10.2353
    CHANNELS 3 Zrotation Xrotation Yrotation
    JOINT LeftLeg
    {
      OFFSET 2.56703 -44.7417 -7.93097
      CHANNELS 3 Zrotation Xrotation Yrotation
      JOINT LeftFoot
      {
        OFFSET 3.16933 -46.5642 -3.96578
        CHANNELS 3 Zrotation Xrotation Yrotation
        JOINT LeftToeBase
        {
          OFFSET 0.346054 -6.02161 12.8035
          CHANNELS 3 Zrotation Xrotation Yrotation
          End Site
          {
            OFFSET 0.134235 -1.35082 5.13018
          }
        }
      }
    }
  }
  JOINT RightUpLeg
  {
    OFFSET -5.7928 -1.72406 10.6446
    CHANNELS 3 Zrotation Xrotation Yrotation
    JOINT RightLeg
    {
      OFFSET -2.57161 -44.7178 -7.85259
      CHANNELS 3 Zrotation Xrotation Yrotation
      JOINT RightFoot
      {
        OFFSET -3.10148 -46.5936 -4.03391
        CHANNELS 3 Zrotation Xrotation Yrotation
        JOINT RightToeBase
        {
          OFFSET -0.0828122 -6.13587 12.8035
          CHANNELS 3 Zrotation Xrotation Yrotation
          End Site
          {
            OFFSET -0.131328 -1.35082 5.13018
          }
        }
      }
    }
  }
}
MOTION
Frames:	17
Frame Time:	0.0333333
-159.996 86.593 173.218 50.4069 34.4043 25.2683 -70.1915 0 88.8779 133.44 69.8298 -46.9447 12.4801 24.2814 -4.68232 -151.123 18.1742 165.359 -137.687 54.2215 169.803 1.41037 -6.93132 -22.2766 -101.75 48.3006 -82.4795 -9.41183 31.0657 6.72704 9.22415 -0.523898 -4.65398 0.191257 0.473184 17.5236 -55.95 -54.7047 121.343 26.4159 -3.05773 84.7118 11.2079 0.100779 0.722712 -0.444366 -4.13495 93.8403 -11.1127 74.1499 3.9666 8.25471 1.95482 -1.1056 -7.97037 -33.6455 11.6443 -70.3998 -2.27428 74.2246 2.32468 37.705 11.0991 -8.23333 -16.2313 1.16709 8.6221 -16.49 -12.0499 
-155.978 86.4047 169.02 47.8872 34.4986 25.5206 -70.1915 0 88.8779 132.477 68.9147 -47.9215 11.5523 24.0934 -6.40902 -153.725 18.5661 165.616 -137.143 54.2821 169.423 1.39061 -7.16086 -22.4966 -102.088 46.0068 -85.5651 -9.38736 27.9463 8.06262 10.0456 -0.531182 -4.22762 0.194061 0.401904 17.6644 -52.3432 -55.073 121.512 29.5065 -2.01915 87.5439 11.4099 0.266154 2.45385 -1.24039 -5.16349 96.0186 -12.3679 75.8175 6.78282 9.80752 5.02399 -1.35733 -9.00173 -38.1593 9.95743 -68.1306 -4.8438 74.712 2.54668 43.1667 7.16423 -7.14464 -11.7244 1.1469 5.1603 -11.2464 -4.47453 
-151.948 86.2774 165.301 45.1867 35.1278 26.9707 -70.1915 0 88.8779 131.369 68.1083 -48.5519 11.2388 23.6239 -6.54761 -157.133 19.2815 168.6 -139.335 55.4449 171.415 1.47734 -6.75034 -23.7997 -100.292 44.409 -93.0684 -8.25001 25.6074 6.00231 12.3966 -0.48426 -2.70312 0.184126 0.399403 18.8734 -50.4494 -54.6525 120.092 29.2719 -3.23339 84.9943 12.5471 0.21124 1.65808 -2.35476 -6.86406 96.1106 -14.378 77.2207 8.28019 9.88427 5.8513 -1.38087 -9.69328 -41.2099 9.58355 -61.2989 -4.65849 78.2525 3.06651 55.631 -0.648264 -4.93052 -6.48279 0.952274 -2.30031 10.1733 -2.10032 
-147.655 85.9278 161.459 43.8482 36.593 27.3681 -70.1915 0 88.8779 131.157 67.0918 -50.6593 11.1666 23.1698 -6.24597 -159.315 19.9903 170.769 -140.336 56.4126 172.299 1.59343 -6.181 -25.0476 -97.6461 42.8202 -103.178 -6.85299 23.7215 2.45802 13.7288 -0.603811 -3.24856 0.199807 0.0332223 20.6432 -50.9994 -54.2875 117.216 26.2744 -6.10345 77.563 12.4479 0.175173 1.32688 -5.14604 -8.57798 96.3664 -17.004 78.6516 10.3495 10.4399 7.17854 -1.49944 -11.3009 -46.5948 7.77761 -52.4476 -4.06737 81.9299 8.1451 73.6301 -9.13652 -5.03982 -1.11459 0.811572 2.81718 5.18941 -10.7642 
-142.826 85.5247 157.214 43.2606 39.0137 27.4982 -70.1915 0 88.8779 129.609 66.1616 -51.3352 11.3545 22.3514 -6.08146 -160.087 19.9908 171.184 -140.42 56.5111 172.952 1.67658 -5.67421 -25.3959 -94.89 41.2248 -113.205 -4.17397 23.4193 -4.58465 13.9674 -0.751798 -4.34214 0.193693 -0.0230554 22.9613 -53.9026 -54.7508 113.043 25.8284 -10.6825 67.2487 10.7625 0.116567 0.948545 -9.60518 -10.0514 96.6511 -21.0399 80.1392 12.727 10.5063 6.3128 -1.49541 -12.062 -48.6011 6.7989 -42.5205 -3.47757 84.4802 131.04 85.3859 -130.695 -5.60359 -2.88994 0.914853 3.89163 5.7049 -13.6695 
-137.65 85.2431 152.572 42.3458 42.1922 27.3802 -70.1915 0 88.8779 127.739 64.9631 -52.3561 10.1766 21.2764 -5.14032 -160.473 20.0762 171.188 -142.46 56.9557 173.788 1.67023 -5.69515 -25.3107 -85.3247 37.2815 -127.133 0.573327 16.5319 -13.6737 13.4483 -0.749444 -4.55309 0.242499 -0.4983 23.8571 -56.9511 -56.916 108.505 25.5766 -15.8838 57.2223 11.3866 -0.0590888 -0.992761 -15.3932 -12.5663 96.1998 -22.9324 80.3064 11.6988 9.9167 4.64348 -1.36999 -12.456 -49.1462 5.8669 -31.2236 -3.85008 87.179 165.64 70.611 -161.547 -7.12579 -4.23916 1.07498 4.05838 5.13148 -13.7792 
-131.797 85.2016 147.245 40.5759 44.475 28.8572 -70.1915 0 88.8779 125.107 64.2039 -51.3073 7.67412 20.25 -3.82101 -160.035 19.8781 171.193 -144.147 56.9924 174.189 1.56979 -5.9372 -23.5511 -77.2923 33.1856 -137.709 5.96494 8.1038 -24.9504 13.1538 -0.835978 -5.42068 0.287804 -0.883608 24.6552 -65.6957 -59.7518 94.4071 28.025 -19.2571 55.1298 10.9726 -0.0614073 -1.04382 -22.5823 -13.5604 94.7597 -19.1532 78.1736 5.08163 9.20345 3.72209 -1.24892 -13.5873 -50.754 3.53003 -17.9034 -3.42501 89.5892 168.714 61.5947 -163.545 -6.78179 -4.5534 1.04961 5.54198 -0.415662 -14.567 
-124.74 85.3873 141.306 37.7615 45.0474 32.9117 -70.1915 0 88.8779 120.115 64.6441 -46.5145 4.83206 19.0763 -0.662823 -160.063 19.4619 172.521 -146.646 56.957 175.221 1.54744 -5.47313 -21.6607 -79.359 36.482 -140.96 12.569 12.559 -40.064 13.0392 -0.784494 -5.04462 0.321723 -1.2016 23.996 -72.383 -60.5859 78.9574 29.5935 -16.7207 60.6348 9.1683 -0.0473528 -1.00072 -30.7126 -12.0382 91.3537 -13.34 73.5216 -2.61852 10.5562 2.60363 -1.43342 -14.3375 -52.4109 2.8448 -4.12853 -1.78463 89.5167 169.307 60.3848 -165.973 -7.17633 -4.01391 1.07725 8.13797 -9.6454 -16.5476 
-117.215 87.2538 133.958 35.6101 46.7396 37.2394 -70.1915 0 88.8779 116.867 63.7695 -42.2021 2.22399 17.2182 2.20763 -158.953 18.7784 172.226 -146.44 56.0055 173.597 1.46289 -5.29747 -19.2818 -79.7331 38.2836 -142.891 18.7096 11.8826 -55.3154 12.3791 -0.735118 -4.95657 0.29515 -1.02591 22.3782 -75.1909 -61.2146 67.5021 29.9567 -13.7782 65.6113 9.05432 0.0194623 -0.102663 -42.9692 -12.2598 83.5881 -7.3273 63.4083 -9.11583 9.27057 1.31554 -1.23961 -12.9066 -49.5487 4.62425 3.93364 -2.45607 88.672 167.509 67.3707 -164.969 -7.56422 -5.4065 1.11888 8.95675 -14.0574 -16.0104 
-109.416 90.4089 125.629 37.4917 45.3796 39.3654 -70.1915 0 88.8779 116.711 63.3953 -38.0449 0.501691 16.6037 3.71721 -158.293 17.4891 172.606 -146.443 54.3898 171.888 1.48279 -4.54993 -18.4072 -79.7779 37.4407 -140.877 24.1263 8.93106 -69.0733 14.6778 -0.976831 -5.7553 0.157344 0.517315 20.8767 -75.5579 -62.1072 61.5536 27.4515 -12.2087 65.911 11.8242 -0.0290108 -0.661099 -57.3912 -9.33787 74.9175 -3.81395 49.2822 -9.93438 5.9799 0.125516 -0.83063 -9.30755 -39.6042 9.88783 6.27088 -0.227145 85.9153 152.658 81.0709 -147.885 -8.29687 -6.74069 1.17282 9.8599 -15.5825 -18.452 
-101.482 93.9794 117.468 40.2237 42.5845 40.7819 -70.1915 0 88.8779 116.047 64.1027 -33.234 0.915533 16.6714 4.99048 -158.653 16.0624 171.842 -145.963 52.4087 169.473 1.49393 -3.89556 -17.699 -79.1003 36.2427 -136.214 27.544 4.40181 -81.002 19.3808 -1.47502 -6.80757 0.056029 1.92899 20.0043 -75.1562 -62.3635 59.9509 21.2628 -10.1974 62.9437 10.4766 0.0690638 0.435553 -66.69 -0.904479 81.5534 0.851542 37.5925 -17.3528 -1.26369 3.02752 0.289936 -3.89438 -12.86 5.67249 4.70991 3.70638 82.3413 15.8594 78.5189 -9.33778 -7.63247 -9.09665 1.14279 9.08838 -15.0599 -15.6105 
-93.6914 97.1326 109.304 41.5979 41.5497 40.3153 -70.1915 0 88.8779 113.296 64.6074 -29.8976 1.99726 16.1614 6.13257 -159.05 14.7966 170.753 -145.814 50.7732 168.171 1.5448 -2.75774 -17.2458 -77.1923 34.663 -130.812 29.6123 0.399792 -89.4355 22.0008 -1.52436 -6.03742 -0.0420154 2.70344 21.331 -71.9409 -60.2461 64.4607 15.2268 -8.32087 57.8091 9.32648 0.0676446 0.52259 -72.1558 1.93223 86.0081 2.29866 35.001 -24.9438 0.809456 6.20558 0.189155 -3.22056 6.30961 16.2511 0.228325 5.22699 80.9604 4.8336 61.3881 2.70415 -6.29727 -9.56573 1.09384 7.57797 -12.3506 -12.1779 
-87.429 97.6861 101.723 44.2868 41.7717 37.9585 -70.1915 0 88.8779 114.469 65.1416 -29.7249 4.44103 16.7352 5.92546 -160.058 14.8803 171.515 -146.039 50.9039 168.338 1.68036 -1.70291 -18.1194 -73.0362 33.83 -127.79 27.951 -0.476948 -91.2586 21.4195 -1.3596 -5.39538 -0.0924268 2.55874 23.6408 -73.0731 -57.2936 66.4939 12.2701 -7.16805 54.4339 9.73986 0.0457268 0.207407 -72.5225 -1.35262 78.4726 -2.90118 48.4949 -4.47854 -1.17852 10.2254 0.860834 -4.87358 -5.68781 18.6843 -3.55526 4.26031 77.9174 3.47435 54.9766 3.20506 -5.67438 -5.55398 0.980474 7.44999 -11.493 -12.5092 
-81.233 97.2318 94.0274 48.4194 42.5382 34.4233 -70.1915 0 88.8779 118.722 65.5375 -32.5407 7.2929 17.9975 5.42101 -161.806 16.0455 173.284 -144.987 51.96 167.842 1.68096 -2.71365 -19.2673 -69.725 37.0681 -122.794 23.7631 1.75021 -85.9904 17.2294 -1.08928 -5.38315 -0.0560716 1.83741 25.6605 -72.2979 -53.7418 72.9143 7.13392 -3.88548 50.4554 9.72054 0.0336097 0.0562688 -69.0456 -2.32612 81.8133 -8.47465 70.815 2.84334 -1.30683 8.42048 0.739754 -4.80907 -4.40873 18.8951 -8.72803 3.2389 74.8931 3.54974 56.9921 0.9826 -5.24854 -4.96737 0.933931 6.9317 -6.27254 -14.9306 
-74.3779 96.1135 86.4275 52.1166 41.5991 33.1734 -70.1915 0 88.8779 122.09 66.3843 -33.3164 10.4315 19.0598 5.96953 -164.259 16.7351 174.176 -142.538 52.0091 165.774 1.84518 -2.385 -21.246 -67.3318 40.8653 -118.7 22.9762 6.96962 -72.536 16.5094 -1.05368 -5.45125 0.0233348 0.987014 27.7791 -73.436 -48.6606 79.4364 6.26513 -3.16825 50.4853 9.3052 0.0495773 0.286693 -62.2608 -0.168604 83.8458 -132.76 84.3201 125.536 1.25637 9.16598 0.289448 -4.29401 -6.52804 14.9906 -15.4292 5.40183 71.8978 4.24522 59.5955 1.42316 -5.80158 -5.38646 0.986326 4.64779 1.42329 -13.2263 
-67.1142 94.7258 79.1015 55.2613 41.7073 34.6886 -70.1915 0 88.8779 127.439 65.7855 -34.6132 12.5017 19.1505 7.53265 -166.201 17.0024 174.895 -140.121 51.6052 164.01 2.12313 -1.55453 -23.7741 -66.1579 43.7724 -114.997 21.6506 14.5146 -54.5974 12.8677 -0.827752 -5.50569 0.103666 0.310737 30.1901 -73.1963 -42.9659 88.0033 7.43178 -3.92739 52.1971 10.4746 0.178641 1.70729 -53.0484 3.42959 81.1971 -166.888 66.0285 160.23 1.91865 9.05554 0.15154 -4.75153 -10.7853 14.7311 -23.6103 10.1352 69.9714 5.19891 60.4803 4.9745 -5.217 -5.46859 0.94453 8.86731 -7.92955 -20.2503 
-60.5657 92.7359 71.9532 56.0035 41.6454 36.5534 -70.1915 0 88.8779 132.301 64.8779 -35.7355 11.4533 19.2894 8.29883 -167.286 17.1441 174.397 -138.885 51.1967 162.521 2.09593 -2.17214 -24.4648 -61.9849 45.1286 -111.2 16.5495 18.2159 -39.0491 16.2691 -1.30478 -7.26918 0.189769 -0.199785 30.0602 -76.1879 -42.1564 93.9058 10.0067 -4.66111 59.6931 7.1579 0.130973 1.92616 -38.1106 1.89808 76.415 -170.174 51.6812 164.031 3.73773 9.14244 -0.205253 -5.58129 -16.404 16.3786 -28.9232 13.0185 68.843 6.33555 63.2352 5.11461 -6.06666 -6.71015 1.03107 10.9366 -19.4722 -19.827 
